<svg width="26" height="26" viewBox="0 0 26 26" fill="none" xmlns="http://www.w3.org/2000/svg">
<path fill-rule="evenodd" clip-rule="evenodd" d="M5.58096 5.58071C6.08864 5.07303 6.91175 5.07303 7.41943 5.58071L13.0002 11.1615L18.581 5.58071C19.0886 5.07303 19.9118 5.07303 20.4194 5.58071C20.9271 6.08839 20.9271 6.91151 20.4194 7.41919L14.8387 13L20.4194 18.5807C20.9271 19.0884 20.9271 19.9115 20.4194 20.4192C19.9118 20.9269 19.0886 20.9269 18.581 20.4192L13.0002 14.8384L7.41943 20.4192C6.91175 20.9269 6.08864 20.9269 5.58096 20.4192C5.07327 19.9115 5.07327 19.0884 5.58096 18.5807L11.1617 13L5.58096 7.41919C5.07327 6.91151 5.07327 6.08839 5.58096 5.58071Z" fill="#21272A"/>
</svg>
