<svg width="160" height="57" viewBox="0 0 160 57" fill="none" xmlns="http://www.w3.org/2000/svg">
<path d="M10.0291 19.5061C10.1812 19.5338 10.5197 20.0668 11.0449 21.105C11.57 22.1294 12.2126 23.4583 12.9726 25.0917L13.636 26.483C13.9262 26.1646 14.1956 25.7977 14.4444 25.3824C14.6931 24.9533 15.004 24.3788 15.3772 23.659C15.8056 22.8423 16.1027 22.3162 16.2685 22.0809C16.9318 21.0704 17.6504 19.9976 18.4243 18.8624C18.521 18.7102 18.6938 18.6064 18.9425 18.551C18.984 18.5371 19.0531 18.5302 19.1498 18.5302C19.4815 18.5302 19.8477 18.6686 20.2484 18.9455C20.663 19.2224 20.9325 19.5061 21.0569 19.7968C21.0845 19.8522 21.0983 19.956 21.0983 20.1083C21.0983 20.2467 21.0914 20.3506 21.0776 20.4198C21.05 20.5444 21.0154 20.7035 20.9739 20.8973C20.9463 21.0773 20.9187 21.2919 20.891 21.541C20.4488 24.9187 20.131 27.452 19.9375 29.1408C19.8822 29.5284 19.8546 29.9644 19.8546 30.4489L19.8131 31.1134C19.7993 31.2519 19.7924 31.411 19.7924 31.5908C19.7924 31.771 19.7717 31.8955 19.7302 31.9647C19.6888 32.034 19.6127 32.0686 19.5022 32.0686C19.4193 32.0686 19.2949 32.0478 19.1291 32.0064C18.6869 31.9092 18.3483 31.7364 18.1134 31.4873C17.8784 31.224 17.7472 30.8642 17.7195 30.4074C17.7057 30.1721 17.6988 29.8052 17.6988 29.3069C17.6988 28.7947 17.7126 28.0126 17.7403 26.9605L17.761 25.8185L17.8025 24.1781C17.6781 24.2889 17.3602 24.7249 16.8489 25.4863C16.3514 26.2338 15.8609 27.0159 15.3772 27.8326C14.8935 28.6494 14.5757 29.2792 14.4236 29.7222C14.2855 30.0683 14.1473 30.3243 14.0091 30.4905C13.8847 30.6565 13.7327 30.7395 13.553 30.7395C13.3872 30.7395 13.173 30.6635 12.9105 30.5112C12.1642 30.0544 11.7082 29.4246 11.5424 28.6217C11.2798 27.3897 10.955 26.1092 10.5681 24.7803C10.499 24.5311 10.3608 24.192 10.1535 23.7628C9.96004 23.3337 9.83568 23.0638 9.7804 22.953L9.51093 22.4131C7.49331 25.0987 6.12521 27.5627 5.40661 29.8052C5.26843 30.2759 5.13715 30.615 5.01276 30.8226C4.8884 31.0166 4.7433 31.1134 4.57746 31.1134C4.31491 31.1134 3.94177 30.878 3.4581 30.4074C3.08499 30.0752 2.89844 29.7014 2.89844 29.2861C2.89844 29.0646 2.9399 28.8432 3.02281 28.6217C3.6032 26.9052 4.46693 25.2786 5.61391 23.7421L6.25651 22.8907C7.12712 21.7418 7.78352 20.842 8.22573 20.1914C8.55739 19.7069 8.99961 19.4646 9.55239 19.4646C9.64912 19.4646 9.80805 19.4785 10.0291 19.5061ZM28.842 31.0926C28.4136 31.3558 27.923 31.4873 27.3702 31.4873C26.7622 31.4873 26.1749 31.335 25.6083 31.0303C25.0555 30.7119 24.6133 30.2621 24.2817 29.6807C23.95 29.0993 23.8118 28.4348 23.8671 27.6873L23.9707 27.1889C24.0536 26.6906 24.1227 26.3238 24.178 26.0884C24.3024 25.5762 24.5511 25.2163 24.9242 25.0087C25.2974 24.801 25.7949 24.6349 26.4167 24.5103C26.8175 24.4273 27.2113 24.3858 27.5982 24.3858C28.8143 24.3858 29.837 24.7941 30.6661 25.6108C31.1082 26.0538 31.3294 26.5937 31.3294 27.2305C31.3294 27.8534 31.1015 28.5248 30.6453 29.2446C30.1203 30.0613 29.5191 30.6773 28.842 31.0926ZM27.1008 25.4447C26.8797 25.9846 26.6447 26.656 26.396 27.4589L26.1887 28.0818L26.3338 28.1441C26.3338 28.241 26.3338 28.3933 26.3338 28.6009C26.3476 28.7947 26.3753 28.9608 26.4167 29.0993C26.5687 29.5284 26.7415 29.7914 26.9349 29.8883C27.0178 29.9298 27.1353 29.9091 27.2873 29.826C27.4531 29.7429 27.5982 29.646 27.7226 29.5353C27.9161 29.3692 28.227 29.0231 28.6554 28.4971C28.9733 28.1372 29.1322 27.708 29.1322 27.2097C29.1322 26.7806 29.0078 26.393 28.7591 26.0469C28.5241 25.7008 28.1925 25.4655 27.7641 25.3409C27.7226 25.3271 27.6466 25.3201 27.5361 25.3201C27.2735 25.3201 27.1284 25.3617 27.1008 25.4447ZM43.207 30.8226C42.9996 30.8643 42.7992 30.8851 42.6059 30.8851C42.1497 30.8851 41.7214 30.7674 41.3207 30.532C40.9199 30.2967 40.5051 29.9506 40.0768 29.4938L39.8697 30.0336C39.676 30.5874 39.5793 30.8572 39.5793 30.8434C39.4273 31.3696 39.1232 31.7916 38.6674 32.11C38.2112 32.4146 37.7068 32.5669 37.154 32.5669C36.7673 32.5669 36.394 32.4909 36.0349 32.3386C35.6754 32.1725 35.3575 31.9371 35.0813 31.6325C34.4177 30.8851 34.0861 30.089 34.0861 29.2446C34.0861 28.3171 34.4801 27.3551 35.2676 26.3584C35.6133 25.9292 36.007 25.6385 36.4494 25.4863C36.9052 25.334 37.4372 25.2579 38.0454 25.2579C38.3357 25.2579 38.5429 25.1956 38.6674 25.071C38.7916 24.9464 38.8399 24.7249 38.8124 24.4065C38.6741 23.0222 38.605 21.7556 38.605 20.6066C38.605 20.2883 38.6603 19.8384 38.7708 19.257C38.8262 18.9801 38.9574 18.7586 39.1648 18.5925C39.3719 18.4126 39.6209 18.3226 39.911 18.3226C40.0076 18.3226 40.0768 18.3295 40.1184 18.3433C40.7816 18.4679 41.1133 18.8694 41.1133 19.5477L41.1549 20.8558C41.2099 23.4583 41.2928 25.4032 41.4036 26.6906C41.4311 27.0644 41.514 27.4243 41.6523 27.7703C41.8044 28.1164 42.0252 28.5871 42.3156 29.1823C42.3847 29.3207 42.578 29.4592 42.8959 29.5976C42.9375 29.6253 43.0066 29.6599 43.1033 29.7014C43.2138 29.7429 43.2967 29.7914 43.352 29.8468C43.4762 29.9298 43.5937 30.0475 43.7045 30.1998C43.8149 30.3382 43.8911 30.4351 43.9324 30.4905C43.8357 30.532 43.7112 30.5943 43.5592 30.6773C43.4212 30.7466 43.3037 30.795 43.207 30.8226ZM37.5064 26.7529C37.161 26.9744 36.8777 27.3274 36.6565 27.8119C36.4353 28.2825 36.3249 28.7739 36.3249 29.2861C36.3249 30.0198 36.5669 30.6012 37.0505 31.0303C37.4926 30.2828 37.8313 29.5976 38.0662 28.9747C38.3012 28.3379 38.4187 27.6873 38.4187 27.0228C38.4187 26.7321 38.2804 26.5868 38.0038 26.5868C37.8521 26.5868 37.6863 26.6421 37.5064 26.7529ZM49.7199 24.3858C49.8441 24.3719 49.9478 24.3719 50.0307 24.3858C50.1136 24.3858 50.1895 24.3858 50.2587 24.3858C50.3553 24.3719 50.5006 24.365 50.694 24.365C51.6338 24.365 52.5595 24.6349 53.4718 25.1748C53.8726 25.424 54.073 25.687 54.073 25.9638C54.073 26.2684 53.8655 26.5383 53.451 26.7737C53.1056 26.9813 52.7461 27.2235 52.3729 27.5004C51.7097 27.9434 51.1431 28.2894 50.6732 28.5386C50.2174 28.7878 49.7129 28.9608 49.1601 29.0577C49.0772 29.0854 48.9872 29.1615 48.8905 29.2861C48.8076 29.3969 48.7731 29.4799 48.7868 29.5353C48.8147 29.6184 48.863 29.7914 48.9322 30.0544C49.0013 30.3036 49.0772 30.5181 49.1601 30.6982C49.2567 30.8642 49.3675 31.0028 49.4917 31.1134C49.63 31.224 49.8371 31.2795 50.1136 31.2795C50.3899 31.2795 50.6457 31.2381 50.8806 31.1551C51.7097 30.7674 52.4974 30.2828 53.2436 29.7014C53.4648 29.5491 53.6581 29.473 53.8239 29.473C54.0313 29.473 54.2525 29.5838 54.4875 29.8052C54.6533 29.9575 54.7362 30.1167 54.7362 30.2828C54.7362 30.4628 54.605 30.6844 54.3422 30.9473C53.1677 32.0962 51.9171 32.6708 50.5903 32.6708C50.2311 32.6708 49.7888 32.6015 49.2638 32.463C48.3793 32.2414 47.702 31.7502 47.2324 30.9887C46.7625 30.2274 46.5276 29.3553 46.5276 28.3725C46.5276 28.068 46.5484 27.7773 46.5897 27.5004C46.6034 27.4035 46.6313 27.2028 46.6726 26.8982C46.7279 26.5799 46.8109 26.3168 46.9213 26.1092C47.4466 25.071 48.3793 24.4965 49.7199 24.3858ZM50.9219 25.8808C50.6732 25.7977 50.4523 25.7562 50.2587 25.7562C49.9408 25.7562 49.6921 25.8531 49.5125 26.0469C49.3329 26.2407 49.1876 26.5314 49.0772 26.919C49.4088 26.9605 49.7612 26.8775 50.1344 26.6698C50.5211 26.4483 50.7839 26.1853 50.9219 25.8808ZM60.0541 23.6798C60.0954 23.8182 60.1025 24.0328 60.0746 24.3235L59.8259 26.7737C59.8951 26.7183 59.9988 26.5245 60.137 26.1923C60.275 25.8462 60.4066 25.5693 60.5308 25.3617C60.6553 25.1402 60.752 24.9948 60.8211 24.9256C61.4706 24.3027 62.203 23.9289 63.0183 23.8044C63.8336 23.6798 64.7318 23.6244 65.7129 23.6382C65.8099 23.6382 65.9133 23.6798 66.024 23.7628C66.1482 23.832 66.2106 23.8943 66.2106 23.9497C66.2106 23.9912 66.169 24.0674 66.0861 24.1781C66.0032 24.275 65.9273 24.3373 65.8582 24.365C65.0288 24.6418 64.2964 24.9602 63.6607 25.3201C63.0391 25.6801 62.5 26.1507 62.0439 26.7321C60.9661 28.1026 60.3442 29.5145 60.1783 30.9681C60.137 31.3558 60.0196 31.6187 59.8259 31.7569C59.6326 31.8817 59.3631 31.9439 59.0177 31.9439C58.6307 31.9439 58.2853 31.7778 57.9812 31.4456C57.6771 31.1134 57.525 30.7466 57.525 30.3451C57.5388 28.8778 57.5458 26.6768 57.5458 23.7421C57.5458 23.3406 57.6358 23.0638 57.8154 22.9115C57.9949 22.7454 58.3198 22.6623 58.7897 22.6623C59.1351 22.6623 59.4252 22.7592 59.6601 22.953C59.9088 23.1468 60.0404 23.3891 60.0541 23.6798ZM72.0918 25.6524C72.0918 25.6801 72.1055 25.7216 72.1334 25.777C72.1747 25.8323 72.2092 25.8808 72.2368 25.9223L72.9003 24.9672C73.1491 24.6072 73.4599 24.3927 73.8331 24.3235C74.2201 24.2404 74.5447 24.3027 74.8072 24.5103C75.4567 25.0225 75.9058 25.597 76.1548 26.2338L76.5485 27.2305L77.2534 30.9265C77.3225 31.3141 77.4538 31.7432 77.6471 32.2139C77.7575 32.5185 77.8337 32.7468 77.875 32.8991L78.0616 33.6052C77.7025 33.7158 77.4054 33.7712 77.1705 33.7712C76.3136 33.7712 75.8024 33.3836 75.6366 32.6086C75.4845 31.8332 75.3049 30.9127 75.0975 29.8468L74.8901 28.767C74.5585 27.7565 74.1993 27.2582 73.8123 27.272C73.4253 27.272 73.142 27.4243 72.9624 27.7288C72.7 28.1579 72.5479 28.6217 72.5063 29.12C72.4788 29.6045 72.465 30.2482 72.465 31.0512C72.3959 31.3558 72.2922 31.5703 72.1539 31.6947C72.0159 31.8057 71.8018 31.8608 71.5114 31.8608C70.8482 31.8608 70.4957 31.5357 70.4541 30.8851C70.3991 30.1098 70.3712 29.2377 70.3712 28.2687C70.3712 27.9918 70.3437 27.7496 70.2883 27.5419C70.2333 27.3343 70.1087 27.2305 69.9154 27.2305C69.8325 27.2305 69.7218 27.2374 69.5838 27.2512C69.4593 27.2651 69.3626 27.2651 69.2935 27.2512C69.0447 27.1959 68.8306 27.1474 68.6507 27.1059C68.4711 27.0644 68.3053 27.0021 68.1533 26.919C68.0153 26.8221 67.9599 26.6629 67.9874 26.4414C68.0291 26.2061 68.1049 25.9846 68.2157 25.777C68.3123 25.6385 68.4161 25.507 68.5265 25.3824C68.6507 25.244 68.8098 25.0917 69.0031 24.9256C69.5146 24.4827 70.0675 24.2542 70.6616 24.2404C71.1036 24.2266 71.4215 24.365 71.6151 24.6557C71.8222 24.9464 71.9813 25.2786 72.0918 25.6524ZM96.1248 22.8284C96.0557 22.9669 95.8348 23.3475 95.4616 23.9705C95.807 24.1781 96.0489 24.3096 96.1872 24.365C96.9196 24.6418 97.4654 25.0641 97.8245 25.6316C98.1978 26.1853 98.3844 26.8013 98.3844 27.4796C98.3844 28.1441 98.2115 28.8016 97.8662 29.4522C97.0092 31.0441 95.6274 32.3177 93.7202 33.273C93.2506 33.5083 92.7874 33.626 92.3316 33.626C91.6684 33.626 91.0532 33.3906 90.4866 32.9199C90.2657 32.74 90.0029 32.5393 89.6991 32.3177C89.6713 32.4008 89.6367 32.4976 89.5954 32.6086C89.5676 32.733 89.5333 32.8231 89.4917 32.8783C89.3259 33.1274 89.1185 33.2521 88.8698 33.2521C88.6489 33.2521 88.4485 33.162 88.2686 32.9821C87.7712 32.5255 87.5224 32.0064 87.5224 31.4247C87.5224 30.9819 87.5154 30.5943 87.5016 30.2621C87.4879 29.9298 87.4741 29.653 87.4603 29.4315C87.4466 29.1546 87.4325 28.8086 87.4187 28.3933C87.405 27.978 87.3982 27.4935 87.3982 26.9398C87.3982 25.8877 87.4533 24.9464 87.5641 24.1158C87.7158 22.8976 88.0061 21.7556 88.4344 20.6897C88.766 19.8868 89.2567 19.257 89.9062 18.8002C90.5695 18.3433 91.3505 18.0734 92.2487 17.9903C92.6632 17.9627 92.9811 17.9488 93.2023 17.9488C94.2247 17.9488 95.0816 18.1703 95.7724 18.6133C96.1319 18.8348 96.4081 19.1255 96.6018 19.4854C96.8089 19.8453 96.9126 20.2329 96.9126 20.6482C96.9126 20.9942 96.8367 21.3403 96.6847 21.6864L96.4772 22.1017C96.3806 22.3232 96.2631 22.5654 96.1248 22.8284ZM94.4872 21.105C94.5563 20.925 94.6187 20.6274 94.6738 20.2121L94.7362 19.7553C94.3214 19.5754 93.9276 19.4854 93.5544 19.4854C93.2366 19.4854 92.9395 19.5338 92.6632 19.6307C92.0688 19.8245 91.5714 20.1221 91.1706 20.5236C90.7839 20.9112 90.4728 21.3403 90.2379 21.811C90.017 22.2816 89.7958 22.863 89.5746 23.5552C89.4088 24.0951 89.3259 24.6972 89.3259 25.3617C89.3259 25.7216 89.3534 26.2476 89.4088 26.9398C89.4363 27.1474 89.4642 27.4866 89.4917 27.9572C89.5055 28.331 89.5816 29.0993 89.7196 30.2621L89.8025 30.9473C89.8854 30.9749 90.0237 31.0028 90.2171 31.0303C90.4798 31.0579 90.6802 31.1134 90.8182 31.1964C90.9427 31.2657 91.0672 31.3834 91.1914 31.5495C91.3159 31.7018 91.4126 31.8195 91.4818 31.9025C92.3108 31.7364 93.0157 31.3972 93.596 30.8851C94.1901 30.3728 94.7708 29.7083 95.3374 28.8916C95.7657 28.2272 96.0352 27.6319 96.1456 27.1059C96.1872 26.8982 96.2077 26.7114 96.2077 26.5452C96.2077 26.1715 96.1043 25.8877 95.8969 25.6939C95.7036 25.5001 95.434 25.4032 95.0883 25.4032C94.8812 25.4032 94.6876 25.4309 94.508 25.4863C93.8863 25.6662 93.2506 26.0607 92.6011 26.6698C92.2692 26.9605 91.9376 27.1059 91.606 27.1059C91.3989 27.1059 91.1847 27.0436 90.9635 26.919C90.701 26.7667 90.4798 26.6006 90.3003 26.4207C90.1204 26.2407 89.9683 26.0054 89.8441 25.7147L90.3208 25.3824C90.8182 25.0225 91.1985 24.7664 91.461 24.6142C92.8015 23.8943 93.8102 22.7246 94.4872 21.105ZM107.917 31.4247C107.793 31.3696 107.668 31.3417 107.544 31.3417C107.42 31.3417 107.309 31.3763 107.213 31.4456C107.129 31.5011 107.033 31.5908 106.922 31.7156C106.756 31.8817 106.584 32.0202 106.404 32.1308C106.238 32.2277 105.934 32.3177 105.492 32.4008C105.298 32.4284 105.14 32.4422 105.015 32.4422C104.435 32.4422 103.827 32.3177 103.191 32.0686C102.569 31.8057 102.127 31.494 101.864 31.1342C101.588 30.7466 101.457 30.3313 101.471 29.8883C101.484 29.2238 101.761 28.5594 102.3 27.8949C102.825 27.2582 103.302 26.8083 103.73 26.5452C104.172 26.2822 104.773 26.1161 105.533 26.0469C105.699 26.0469 105.934 26.0192 106.238 25.9638C106.556 25.9085 106.715 25.8323 106.715 25.7354C106.715 25.5416 106.625 25.3686 106.446 25.2163C106.279 25.0502 105.934 24.9672 105.409 24.9672C105.215 24.9672 104.925 24.981 104.538 25.0087C104.151 25.0364 103.882 25.0502 103.73 25.0502C103.26 25.0502 102.922 24.9741 102.714 24.8218C102.659 24.7941 102.631 24.6626 102.631 24.4273C102.631 24.012 102.776 23.749 103.067 23.6382C103.661 23.4168 104.276 23.2991 104.911 23.2852C105.713 23.2852 106.452 23.4652 107.129 23.8251C107.82 24.1712 108.325 24.6072 108.643 25.1333C108.961 25.6593 109.168 26.3861 109.264 27.3135C109.375 28.3517 109.431 29.6737 109.431 31.2795C109.431 31.7226 109.368 31.9785 109.244 32.0478C109.133 32.117 109.03 32.1517 108.933 32.1517C108.809 32.1517 108.691 32.117 108.58 32.0478C108.484 31.9647 108.373 31.8541 108.249 31.7156C108.125 31.5633 108.014 31.4664 107.917 31.4247ZM104.642 31.1756C105.292 30.9819 105.927 30.6706 106.549 30.2413C106.687 30.1444 106.812 30.0198 106.922 29.8675C107.033 29.7153 107.102 29.6184 107.129 29.5768C107.157 29.5353 107.178 29.4176 107.192 29.2238C107.219 29.0162 107.226 28.8501 107.213 28.7255C107.198 28.684 107.171 28.5732 107.129 28.3933C107.102 28.2133 107.053 28.0541 106.984 27.9157C106.915 27.8049 106.805 27.7011 106.653 27.6042C106.501 27.5073 106.362 27.4658 106.238 27.4796C105.976 27.4935 105.692 27.5904 105.388 27.7703C105.084 27.9503 104.801 28.1925 104.538 28.4971C104.276 28.8155 104.069 29.1408 103.916 29.473C103.778 29.7914 103.709 30.089 103.709 30.3659C103.737 30.7395 103.841 30.9887 104.02 31.1134C104.117 31.1827 104.234 31.2173 104.373 31.2173C104.483 31.2173 104.573 31.2035 104.642 31.1756ZM120.57 29.7845C120.625 29.8122 120.86 29.9506 121.274 30.1998C120.846 30.4905 120.411 30.6358 119.968 30.6358C119.72 30.6358 119.478 30.6012 119.243 30.532C119.008 30.4489 118.773 30.359 118.538 30.2621C118.303 30.1652 118.123 30.089 117.999 30.0336C117.598 29.8675 116.977 29.5215 116.134 28.9954C115.913 28.8293 115.691 28.6909 115.47 28.5801L114.89 28.2894C114.862 28.3725 114.807 28.4902 114.724 28.6424C114.655 28.7947 114.62 28.9262 114.62 29.037V30.3036C114.62 31.4247 114.641 32.2693 114.683 32.8369C114.71 33.1136 114.724 33.3005 114.724 33.3974C114.724 33.5635 114.689 33.6952 114.62 33.7921C114.565 33.9027 114.454 33.9858 114.289 34.0412C114.137 34.0964 113.95 34.0688 113.729 33.9582C113.508 33.8472 113.308 33.6952 113.128 33.5013C112.962 33.3076 112.879 33.1274 112.879 32.9613C112.81 31.5771 112.776 30.3313 112.776 29.2238C112.803 25.3894 112.845 21.5618 112.9 17.7412C112.9 17.4089 113.017 17.1321 113.252 16.9106C113.501 16.6753 113.798 16.5576 114.144 16.5576C114.503 16.5576 114.814 16.696 115.076 16.9729C115.339 17.2359 115.456 17.5405 115.429 17.8865C115.346 18.7309 115.208 19.6169 115.014 20.5444C114.986 20.6413 114.973 20.7728 114.973 20.9389C114.973 21.188 115.076 21.3126 115.284 21.3126C115.367 21.3126 115.512 21.278 115.719 21.2088C116.009 21.1119 116.265 21.0635 116.486 21.0635C117.122 21.0358 117.612 21.1604 117.958 21.4372C118.317 21.7141 118.497 22.1017 118.497 22.6C118.497 23.043 118.358 23.5137 118.082 24.012C117.723 24.6765 117.211 25.4101 116.548 26.213C116.341 26.4622 116.237 26.6837 116.237 26.8775C116.237 27.0713 116.382 27.3066 116.672 27.5835C117.198 28.0403 117.764 28.4348 118.372 28.767C118.994 29.0993 119.726 29.4384 120.57 29.7845ZM126.223 24.3858C126.347 24.3719 126.451 24.3719 126.534 24.3858C126.617 24.3858 126.693 24.3858 126.762 24.3858C126.859 24.3719 127.004 24.365 127.197 24.365C128.137 24.365 129.063 24.6349 129.975 25.1748C130.376 25.424 130.576 25.687 130.576 25.9638C130.576 26.2684 130.368 26.5383 129.954 26.7737C129.609 26.9813 129.249 27.2235 128.876 27.5004C128.213 27.9434 127.646 28.2894 127.176 28.5386C126.72 28.7878 126.216 28.9608 125.663 29.0577C125.58 29.0854 125.49 29.1615 125.393 29.2861C125.311 29.3969 125.276 29.4799 125.29 29.5353C125.318 29.6184 125.366 29.7914 125.435 30.0544C125.504 30.3036 125.58 30.5181 125.663 30.6982C125.76 30.8642 125.87 31.0028 125.995 31.1134C126.133 31.224 126.34 31.2795 126.617 31.2795C126.893 31.2795 127.149 31.2381 127.384 31.1551C128.213 30.7674 129 30.2828 129.747 29.7014C129.968 29.5491 130.161 29.473 130.327 29.473C130.534 29.473 130.755 29.5838 130.99 29.8052C131.156 29.9575 131.239 30.1167 131.239 30.2828C131.239 30.4628 131.108 30.6844 130.845 30.9473C129.671 32.0962 128.42 32.6708 127.094 32.6708C126.734 32.6708 126.292 32.6015 125.767 32.463C124.882 32.2414 124.205 31.7502 123.735 30.9887C123.265 30.2274 123.031 29.3553 123.031 28.3725C123.031 28.068 123.051 27.7773 123.093 27.5004C123.107 27.4035 123.134 27.2028 123.176 26.8982C123.231 26.5799 123.314 26.3168 123.425 26.1092C123.95 25.071 124.882 24.4965 126.223 24.3858ZM127.425 25.8808C127.176 25.7977 126.955 25.7562 126.762 25.7562C126.444 25.7562 126.195 25.8531 126.015 26.0469C125.836 26.2407 125.691 26.5314 125.58 26.919C125.912 26.9605 126.264 26.8775 126.637 26.6698C127.024 26.4483 127.287 26.1853 127.425 25.8808ZM136.557 23.6798C136.598 23.8182 136.605 24.0328 136.578 24.3235L136.329 26.7737C136.398 26.7183 136.502 26.5245 136.64 26.1923C136.778 25.8462 136.91 25.5693 137.034 25.3617C137.158 25.1402 137.255 24.9948 137.324 24.9256C137.974 24.3027 138.706 23.9289 139.521 23.8044C140.337 23.6798 141.235 23.6244 142.216 23.6382C142.313 23.6382 142.417 23.6798 142.527 23.7628C142.651 23.832 142.714 23.8943 142.714 23.9497C142.714 23.9912 142.672 24.0674 142.589 24.1781C142.506 24.275 142.43 24.3373 142.361 24.365C141.532 24.6418 140.8 24.9602 140.164 25.3201C139.542 25.6801 139.003 26.1507 138.547 26.7321C137.469 28.1026 136.847 29.5145 136.682 30.9681C136.64 31.3558 136.523 31.6187 136.329 31.7569C136.136 31.8817 135.866 31.9439 135.521 31.9439C135.134 31.9439 134.788 31.7778 134.484 31.4456C134.18 31.1134 134.028 30.7466 134.028 30.3451C134.042 28.8778 134.049 26.6768 134.049 23.7421C134.049 23.3406 134.139 23.0638 134.318 22.9115C134.498 22.7454 134.823 22.6623 135.293 22.6623C135.638 22.6623 135.928 22.7592 136.163 22.953C136.412 23.1468 136.543 23.3891 136.557 23.6798ZM148.947 28.3517C149.196 27.3412 149.348 26.5591 149.403 26.0054C149.472 25.4378 149.59 25.0364 149.756 24.801C149.922 24.5657 150.198 24.448 150.585 24.448C151.165 24.448 151.628 24.5796 151.974 24.8426C152.319 25.1056 152.492 25.4655 152.492 25.9223C152.492 25.9777 152.478 26.0884 152.45 26.2545C152.243 27.3897 151.905 28.5732 151.435 29.8052C150.688 31.8262 149.887 33.8472 149.03 35.8683C148.768 36.4637 148.374 37.038 147.849 37.5918C147.724 37.7303 147.607 37.7996 147.496 37.7996C147.33 37.7996 147.206 37.6197 147.123 37.2596C147.04 36.886 146.999 36.5259 146.999 36.18C146.999 35.7785 147.04 35.3771 147.123 34.9756C147.206 34.5879 147.324 34.1172 147.476 33.5635C147.614 33.0376 147.71 32.6429 147.766 32.38C147.821 32.1032 147.849 31.9092 147.849 31.7986C147.849 31.3696 147.641 31.0166 147.227 30.7395C146.508 30.269 145.962 29.6737 145.589 28.9539C145.23 28.2202 144.94 27.3481 144.719 26.3376C144.705 26.2961 144.698 26.2338 144.698 26.1507C144.698 25.9015 144.794 25.687 144.988 25.507C145.181 25.3271 145.403 25.2371 145.651 25.2371C145.803 25.2371 145.935 25.2648 146.045 25.3201C146.405 25.4724 146.688 25.6662 146.895 25.9015C147.102 26.123 147.254 26.4207 147.351 26.7944C147.434 27.1405 147.559 27.5004 147.724 27.8742C147.89 28.2479 147.987 28.4763 148.014 28.5594L148.305 29.2446H148.761L148.947 28.3517Z" fill="black"/>
</svg>
