<svg width="523" height="186" viewBox="0 0 523 186" fill="none" xmlns="http://www.w3.org/2000/svg">
<path d="M32.7828 63.6517C33.2797 63.7421 34.3864 65.4812 36.1029 68.869C37.8194 72.2117 39.9199 76.5482 42.4043 81.8784L44.5726 86.4182C45.5212 85.3792 46.402 84.1822 47.2151 82.827C48.0282 81.4267 49.0445 79.5521 50.2642 77.2032C51.6645 74.538 52.6357 72.8215 53.1777 72.0536C55.346 68.7561 57.6949 65.2553 60.2245 61.5512C60.5407 61.0544 61.1053 60.7156 61.9184 60.5349C62.0539 60.4897 62.2798 60.4671 62.596 60.4671C63.6801 60.4671 64.8772 60.9188 66.1871 61.8223C67.5423 62.7257 68.4231 63.6517 68.8297 64.6003C68.92 64.781 68.9652 65.1198 68.9652 65.6167C68.9652 66.0684 68.9426 66.4072 68.8974 66.633C68.8071 67.0396 68.6941 67.559 68.5586 68.1914C68.4683 68.7787 68.3779 69.4788 68.2876 70.2919C66.8421 81.3138 65.8032 89.5802 65.1708 95.0911C64.9901 96.3559 64.8997 97.7788 64.8997 99.3598L64.7642 101.528C64.7191 101.98 64.6965 102.499 64.6965 103.086C64.6965 103.674 64.6287 104.08 64.4932 104.306C64.3577 104.532 64.1092 104.645 63.7479 104.645C63.4768 104.645 63.0703 104.577 62.5282 104.442C61.0827 104.125 59.976 103.561 59.2081 102.748C58.4402 101.889 58.0111 100.715 57.9207 99.2243C57.8756 98.4564 57.853 97.2593 57.853 95.6331C57.853 93.9618 57.8982 91.4096 57.9885 87.9766L58.0563 84.2499L58.1918 78.8971C57.7852 79.2585 56.7463 80.6814 55.0749 83.1658C53.4488 85.6051 51.8452 88.1573 50.2642 90.8224C48.6832 93.4875 47.6442 95.5428 47.1473 96.9883C46.6956 98.1176 46.2439 98.9532 45.7922 99.4953C45.3856 100.037 44.8888 100.308 44.3015 100.308C43.7595 100.308 43.0593 100.06 42.2011 99.5631C39.7618 98.0724 38.2711 96.0171 37.7291 93.3972C36.8708 89.3769 35.8093 85.1985 34.5445 80.8621C34.3186 80.049 33.8669 78.9423 33.1893 77.542C32.5569 76.1416 32.1504 75.2608 31.9697 74.8994L31.0889 73.1377C24.4938 81.901 20.0218 89.9415 17.6729 97.2593C17.2212 98.7951 16.7921 99.9018 16.3855 100.579C15.979 101.212 15.5047 101.528 14.9626 101.528C14.1044 101.528 12.8847 100.76 11.3037 99.2243C10.0841 98.1402 9.4743 96.9205 9.4743 95.5654C9.4743 94.8426 9.60982 94.1199 9.88084 93.3972C11.778 87.7959 14.6013 82.4882 18.3505 77.4742L20.451 74.6961C23.2968 70.9469 25.4424 68.0108 26.8879 65.8877C27.972 64.3067 29.4175 63.5162 31.2244 63.5162C31.5406 63.5162 32.0601 63.5614 32.7828 63.6517ZM94.2773 101.46C92.877 102.319 91.2734 102.748 89.4665 102.748C87.479 102.748 85.5592 102.251 83.7071 101.257C81.9003 100.218 80.4548 98.75 79.3707 96.8528C78.2866 94.9556 77.8348 92.7873 78.0155 90.3481L78.3543 88.7219C78.6253 87.0957 78.8512 85.8987 79.0319 85.1308C79.4384 83.4594 80.2515 82.285 81.4711 81.6074C82.6908 80.9298 84.317 80.3878 86.3497 79.9812C87.6596 79.7102 88.947 79.5747 90.2118 79.5747C94.1869 79.5747 97.5296 80.9072 100.24 83.5723C101.685 85.0178 102.408 86.7795 102.408 88.8574C102.408 90.8901 101.663 93.0809 100.172 95.4299C98.4556 98.095 96.4907 100.105 94.2773 101.46ZM88.5857 83.0303C87.8629 84.792 87.095 86.9828 86.2819 89.6027L85.6043 91.6355L86.0786 91.8387C86.0786 92.1549 86.0786 92.6518 86.0786 93.3294C86.1238 93.9618 86.2142 94.5039 86.3497 94.9556C86.8466 96.3559 87.4112 97.2141 88.0436 97.5303C88.3146 97.6659 88.6986 97.5981 89.1955 97.3271C89.7375 97.056 90.2118 96.7398 90.6184 96.3785C91.2508 95.8364 92.2671 94.7071 93.6675 92.9906C94.7064 91.8161 95.2259 90.4158 95.2259 88.7897C95.2259 87.3893 94.8193 86.1245 94.0062 84.9953C93.2383 83.866 92.1542 83.098 90.7539 82.6915C90.6184 82.6463 90.3699 82.6237 90.0086 82.6237C89.1503 82.6237 88.676 82.7593 88.5857 83.0303ZM141.233 100.579C140.555 100.715 139.9 100.783 139.268 100.783C137.777 100.783 136.377 100.399 135.067 99.6308C133.757 98.8629 132.401 97.7336 131.001 96.243L130.324 98.0046C129.691 99.8115 129.375 100.692 129.375 100.647C128.878 102.364 127.884 103.741 126.394 104.78C124.903 105.774 123.254 106.271 121.447 106.271C120.183 106.271 118.963 106.023 117.789 105.526C116.614 104.984 115.575 104.216 114.672 103.222C112.503 100.783 111.419 98.1853 111.419 95.4299C111.419 92.4034 112.707 89.264 115.281 86.0116C116.411 84.6113 117.698 83.6627 119.144 83.1658C120.634 82.6689 122.373 82.4205 124.361 82.4205C125.31 82.4205 125.987 82.2172 126.394 81.8107C126.8 81.4041 126.958 80.6814 126.868 79.6424C126.416 75.1253 126.19 70.9921 126.19 67.2428C126.19 66.2039 126.371 64.7358 126.732 62.8386C126.913 61.9352 127.342 61.2125 128.02 60.6704C128.697 60.0832 129.511 59.7895 130.459 59.7895C130.775 59.7895 131.001 59.8121 131.137 59.8573C133.305 60.2638 134.389 61.5738 134.389 63.7872L134.525 68.0559C134.705 76.5482 134.976 82.8948 135.338 87.0957C135.428 88.3154 135.699 89.4898 136.151 90.6191C136.648 91.7484 137.37 93.2842 138.319 95.2266C138.545 95.6783 139.177 96.13 140.216 96.5817C140.352 96.6721 140.578 96.785 140.894 96.9205C141.255 97.056 141.526 97.2141 141.707 97.3948C142.113 97.6659 142.497 98.0498 142.859 98.5467C143.22 98.9984 143.469 99.3146 143.604 99.4953C143.288 99.6308 142.881 99.8341 142.384 100.105C141.933 100.331 141.549 100.489 141.233 100.579ZM122.599 87.299C121.47 88.0217 120.544 89.1736 119.821 90.7546C119.098 92.2904 118.737 93.894 118.737 95.5654C118.737 97.9595 119.528 99.8567 121.109 101.257C122.554 98.8177 123.661 96.5817 124.429 94.549C125.197 92.4711 125.581 90.3481 125.581 88.1798C125.581 87.2312 125.129 86.7569 124.225 86.7569C123.729 86.7569 123.187 86.9376 122.599 87.299ZM162.522 79.5747C162.928 79.5295 163.267 79.5295 163.538 79.5747C163.809 79.5747 164.057 79.5747 164.283 79.5747C164.599 79.5295 165.074 79.5069 165.706 79.5069C168.778 79.5069 171.804 80.3878 174.786 82.1494C176.096 82.9625 176.751 83.8208 176.751 84.7242C176.751 85.718 176.073 86.5988 174.718 87.3668C173.589 88.0443 172.414 88.8348 171.194 89.7383C169.026 91.1837 167.174 92.313 165.638 93.1261C164.148 93.9392 162.499 94.5039 160.692 94.8201C160.421 94.9104 160.127 95.1588 159.811 95.5654C159.54 95.9268 159.427 96.1978 159.472 96.3785C159.563 96.6495 159.721 97.2141 159.947 98.0724C160.173 98.8855 160.421 99.5856 160.692 100.173C161.008 100.715 161.37 101.167 161.776 101.528C162.228 101.889 162.905 102.07 163.809 102.07C164.712 102.07 165.548 101.935 166.316 101.664C169.026 100.399 171.601 98.8177 174.04 96.9205C174.763 96.4236 175.395 96.1752 175.937 96.1752C176.615 96.1752 177.338 96.5366 178.106 97.2593C178.648 97.7562 178.919 98.2757 178.919 98.8177C178.919 99.405 178.49 100.128 177.631 100.986C173.792 104.735 169.704 106.61 165.367 106.61C164.193 106.61 162.747 106.384 161.031 105.932C158.14 105.209 155.926 103.606 154.391 101.121C152.855 98.637 152.087 95.7912 152.087 92.5841C152.087 91.5903 152.155 90.6417 152.29 89.7383C152.335 89.4221 152.426 88.7671 152.561 87.7733C152.742 86.7344 153.013 85.8761 153.374 85.1985C155.091 81.8107 158.14 79.936 162.522 79.5747ZM166.451 84.4532C165.638 84.1822 164.916 84.0466 164.283 84.0466C163.244 84.0466 162.431 84.3628 161.844 84.9953C161.257 85.6277 160.782 86.5763 160.421 87.8411C161.505 87.9766 162.657 87.7055 163.877 87.028C165.141 86.3052 166 85.447 166.451 84.4532ZM196.302 77.2709C196.437 77.7226 196.46 78.4228 196.369 79.3714L195.556 87.3668C195.782 87.1861 196.121 86.5537 196.573 85.4696C197.024 84.3403 197.454 83.4368 197.86 82.7593C198.267 82.0365 198.583 81.5622 198.809 81.3364C200.932 79.3036 203.326 78.084 205.991 77.6775C208.656 77.2709 211.592 77.0902 214.799 77.1354C215.116 77.1354 215.454 77.2709 215.816 77.542C216.222 77.7678 216.426 77.9711 216.426 78.1518C216.426 78.2873 216.29 78.5357 216.019 78.8971C215.748 79.2133 215.5 79.4166 215.274 79.5069C212.563 80.4103 210.169 81.4493 208.091 82.6237C206.059 83.7982 204.297 85.334 202.806 87.2312C199.283 91.7032 197.25 96.3107 196.708 101.054C196.573 102.319 196.189 103.177 195.556 103.628C194.924 104.035 194.043 104.238 192.914 104.238C191.649 104.238 190.52 103.696 189.526 102.612C188.532 101.528 188.035 100.331 188.035 99.021C188.08 94.2328 188.103 87.0506 188.103 77.4742C188.103 76.1642 188.397 75.2608 188.984 74.7639C189.571 74.2218 190.633 73.9508 192.169 73.9508C193.298 73.9508 194.246 74.267 195.014 74.8994C195.827 75.5318 196.257 76.3223 196.302 77.2709ZM235.65 83.7079C235.65 83.7982 235.695 83.9337 235.786 84.1144C235.921 84.2951 236.034 84.4532 236.124 84.5887L238.293 81.4719C239.106 80.2974 240.122 79.5973 241.342 79.3714C242.607 79.1004 243.668 79.3036 244.526 79.9812C246.649 81.6526 248.117 83.5272 248.931 85.6051L250.218 88.8574L252.522 100.918C252.748 102.183 253.177 103.583 253.809 105.119C254.17 106.113 254.419 106.858 254.554 107.355L255.164 109.659C253.99 110.02 253.019 110.201 252.251 110.201C249.45 110.201 247.779 108.936 247.237 106.407C246.74 103.877 246.153 100.873 245.475 97.3948L244.797 93.8715C243.713 90.5739 242.539 88.9478 241.274 88.9929C240.009 88.9929 239.083 89.4898 238.496 90.4836C237.638 91.8839 237.141 93.3971 237.005 95.0233C236.915 96.6043 236.87 98.7048 236.87 101.325C236.644 102.319 236.305 103.019 235.853 103.425C235.402 103.787 234.702 103.967 233.753 103.967C231.585 103.967 230.433 102.906 230.297 100.783C230.117 98.2531 230.026 95.4073 230.026 92.2453C230.026 91.3418 229.936 90.5513 229.755 89.8738C229.575 89.1962 229.168 88.8574 228.536 88.8574C228.265 88.8574 227.903 88.88 227.452 88.9252C227.045 88.9703 226.729 88.9703 226.503 88.9252C225.69 88.7445 224.99 88.5864 224.402 88.4509C223.815 88.3154 223.273 88.1121 222.776 87.8411C222.325 87.5249 222.144 87.0054 222.234 86.2826C222.37 85.5147 222.618 84.792 222.98 84.1144C223.296 83.6627 223.635 83.2336 223.996 82.827C224.402 82.3753 224.922 81.8784 225.554 81.3364C227.226 79.8909 229.033 79.1455 230.975 79.1004C232.42 79.0552 233.459 79.5069 234.092 80.4555C234.769 81.4041 235.289 82.4882 235.65 83.7079ZM314.208 74.4929C313.982 74.9446 313.26 76.1868 312.04 78.2195C313.169 78.8971 313.96 79.3262 314.412 79.5069C316.806 80.4103 318.59 81.7881 319.764 83.6401C320.984 85.447 321.594 87.4571 321.594 89.6705C321.594 91.8387 321.029 93.9844 319.9 96.1074C317.099 101.302 312.582 105.458 306.348 108.575C304.813 109.343 303.299 109.727 301.809 109.727C299.641 109.727 297.63 108.959 295.778 107.423C295.056 106.836 294.197 106.181 293.204 105.458C293.113 105.729 293 106.045 292.865 106.407C292.774 106.813 292.662 107.107 292.526 107.287C291.984 108.1 291.306 108.507 290.493 108.507C289.771 108.507 289.116 108.213 288.528 107.626C286.902 106.136 286.089 104.442 286.089 102.544C286.089 101.099 286.066 99.8341 286.021 98.75C285.976 97.6659 285.931 96.7624 285.886 96.0397C285.841 95.1363 285.795 94.007 285.75 92.6518C285.705 91.2967 285.683 89.7157 285.683 87.9088C285.683 84.4758 285.863 81.4041 286.225 78.6938C286.721 74.7187 287.67 70.9921 289.07 67.5139C290.154 64.8939 291.758 62.8386 293.881 61.348C296.049 59.8573 298.602 58.9765 301.538 58.7054C302.893 58.6151 303.932 58.5699 304.655 58.5699C307.997 58.5699 310.798 59.2927 313.056 60.7382C314.231 61.4609 315.134 62.4095 315.767 63.584C316.444 64.7584 316.783 66.0232 316.783 67.3784C316.783 68.5076 316.535 69.6369 316.038 70.7662L315.36 72.1214C315.044 72.8441 314.66 73.6346 314.208 74.4929ZM308.855 68.869C309.081 68.2818 309.285 67.3106 309.465 65.9555L309.669 64.4648C308.313 63.8776 307.026 63.584 305.806 63.584C304.767 63.584 303.796 63.7421 302.893 64.0583C300.95 64.6907 299.324 65.6618 298.014 66.9718C296.75 68.2366 295.733 69.6369 294.965 71.1728C294.243 72.7086 293.52 74.6058 292.797 76.8644C292.255 78.6261 291.984 80.591 291.984 82.7593C291.984 83.9337 292.074 85.6502 292.255 87.9088C292.345 88.5864 292.436 89.6931 292.526 91.2289C292.571 92.4485 292.82 94.9556 293.271 98.75L293.542 100.986C293.813 101.076 294.265 101.167 294.897 101.257C295.756 101.347 296.411 101.528 296.862 101.799C297.269 102.025 297.676 102.409 298.082 102.951C298.489 103.448 298.805 103.832 299.031 104.103C301.741 103.561 304.045 102.454 305.942 100.783C307.884 99.1113 309.782 96.9431 311.634 94.278C313.034 92.1098 313.915 90.1674 314.276 88.4509C314.412 87.7733 314.479 87.1635 314.479 86.6214C314.479 85.4018 314.141 84.4758 313.463 83.8434C312.831 83.211 311.95 82.8948 310.82 82.8948C310.143 82.8948 309.51 82.9851 308.923 83.1658C306.891 83.753 304.813 85.0404 302.69 87.028C301.605 87.9766 300.521 88.4509 299.437 88.4509C298.76 88.4509 298.06 88.2476 297.337 87.8411C296.479 87.3442 295.756 86.8021 295.169 86.2149C294.581 85.6277 294.084 84.8597 293.678 83.9111L295.236 82.827C296.862 81.6526 298.105 80.8169 298.963 80.32C303.345 77.9711 306.642 74.1541 308.855 68.869ZM352.754 102.544C352.348 102.364 351.941 102.273 351.535 102.273C351.128 102.273 350.767 102.386 350.451 102.612C350.179 102.793 349.863 103.086 349.502 103.493C348.96 104.035 348.395 104.487 347.808 104.848C347.266 105.164 346.272 105.458 344.827 105.729C344.194 105.819 343.675 105.864 343.268 105.864C341.371 105.864 339.384 105.458 337.306 104.645C335.273 103.787 333.827 102.77 332.969 101.596C332.066 100.331 331.637 98.9758 331.682 97.5303C331.727 95.3621 332.63 93.1939 334.392 91.0256C336.109 88.9478 337.667 87.4797 339.067 86.6214C340.513 85.7632 342.478 85.2211 344.962 84.9953C345.504 84.9953 346.272 84.9049 347.266 84.7242C348.305 84.5435 348.824 84.2951 348.824 83.9789C348.824 83.3465 348.531 82.7818 347.944 82.285C347.401 81.7429 346.272 81.4719 344.556 81.4719C343.923 81.4719 342.975 81.517 341.71 81.6074C340.445 81.6977 339.564 81.7429 339.067 81.7429C337.531 81.7429 336.425 81.4945 335.747 80.9976C335.567 80.9072 335.476 80.4781 335.476 79.7102C335.476 78.355 335.95 77.4968 336.899 77.1354C338.841 76.4127 340.852 76.0287 342.929 75.9835C345.549 75.9835 347.966 76.5708 350.179 77.7452C352.438 78.8745 354.087 80.2974 355.126 82.0139C356.165 83.7304 356.842 86.102 357.158 89.1284C357.52 92.5163 357.701 96.8302 357.701 102.07C357.701 103.516 357.497 104.351 357.091 104.577C356.729 104.803 356.391 104.916 356.074 104.916C355.668 104.916 355.284 104.803 354.922 104.577C354.606 104.306 354.245 103.945 353.838 103.493C353.432 102.996 353.07 102.68 352.754 102.544ZM342.049 101.731C344.172 101.099 346.25 100.083 348.282 98.6822C348.734 98.366 349.141 97.9595 349.502 97.4626C349.863 96.9657 350.089 96.6495 350.179 96.514C350.27 96.3785 350.338 95.9945 350.383 95.3621C350.473 94.6845 350.496 94.1425 350.451 93.7359C350.405 93.6004 350.315 93.239 350.179 92.6518C350.089 92.0646 349.931 91.5451 349.705 91.0934C349.479 90.732 349.118 90.3932 348.621 90.077C348.124 89.7608 347.672 89.6253 347.266 89.6705C346.408 89.7157 345.482 90.0319 344.488 90.6191C343.494 91.2063 342.568 91.9968 341.71 92.9906C340.852 94.0296 340.174 95.0911 339.677 96.1752C339.225 97.2141 339 98.1853 339 99.0888C339.09 100.308 339.429 101.121 340.016 101.528C340.332 101.754 340.716 101.867 341.168 101.867C341.529 101.867 341.823 101.822 342.049 101.731ZM394.112 97.1916C394.292 97.2819 395.06 97.7336 396.415 98.5467C395.015 99.4953 393.592 99.9696 392.147 99.9696C391.334 99.9696 390.543 99.8567 389.775 99.6308C389.007 99.3598 388.239 99.0662 387.471 98.75C386.703 98.4338 386.116 98.1853 385.71 98.0046C384.4 97.4626 382.367 96.3333 379.612 94.6168C378.889 94.0747 378.166 93.623 377.443 93.2616L375.546 92.313C375.456 92.5841 375.275 92.968 375.004 93.4649C374.778 93.9618 374.665 94.3909 374.665 94.7523V98.8855C374.665 102.544 374.733 105.3 374.869 107.152C374.959 108.055 375.004 108.665 375.004 108.981C375.004 109.523 374.891 109.953 374.665 110.269C374.485 110.63 374.123 110.901 373.581 111.082C373.084 111.262 372.474 111.172 371.752 110.811C371.029 110.449 370.374 109.953 369.787 109.32C369.245 108.688 368.974 108.1 368.974 107.558C368.748 103.041 368.635 98.9758 368.635 95.3621C368.725 82.8496 368.861 70.3597 369.041 57.8923C369.041 56.8082 369.425 55.9048 370.193 55.1821C371.006 54.4141 371.978 54.0302 373.107 54.0302C374.281 54.0302 375.298 54.4819 376.156 55.3853C377.014 56.2436 377.398 57.2374 377.308 58.3666C377.037 61.1221 376.585 64.0131 375.953 67.0396C375.862 67.3558 375.817 67.7849 375.817 68.327C375.817 69.14 376.156 69.5466 376.834 69.5466C377.105 69.5466 377.579 69.4337 378.256 69.2078C379.205 68.8916 380.041 68.7335 380.763 68.7335C382.841 68.6432 384.445 69.0497 385.574 69.9531C386.749 70.8566 387.336 72.1214 387.336 73.7475C387.336 75.193 386.884 76.7289 385.981 78.355C384.806 80.5233 383.135 82.9174 380.967 85.5373C380.289 86.3504 379.95 87.0731 379.95 87.7055C379.95 88.3379 380.425 89.1059 381.373 90.0093C383.09 91.4999 384.942 92.7873 386.929 93.8715C388.962 94.9556 391.356 96.0623 394.112 97.1916ZM412.591 79.5747C412.997 79.5295 413.336 79.5295 413.607 79.5747C413.878 79.5747 414.127 79.5747 414.352 79.5747C414.669 79.5295 415.143 79.5069 415.775 79.5069C418.847 79.5069 421.874 80.3878 424.855 82.1494C426.165 82.9625 426.82 83.8208 426.82 84.7242C426.82 85.718 426.142 86.5988 424.787 87.3668C423.658 88.0443 422.483 88.8348 421.264 89.7383C419.095 91.1837 417.243 92.313 415.708 93.1261C414.217 93.9392 412.568 94.5039 410.761 94.8201C410.49 94.9104 410.197 95.1588 409.88 95.5654C409.609 95.9268 409.497 96.1978 409.542 96.3785C409.632 96.6495 409.79 97.2141 410.016 98.0724C410.242 98.8855 410.49 99.5856 410.761 100.173C411.078 100.715 411.439 101.167 411.845 101.528C412.297 101.889 412.975 102.07 413.878 102.07C414.782 102.07 415.617 101.935 416.385 101.664C419.095 100.399 421.67 98.8177 424.11 96.9205C424.832 96.4236 425.465 96.1752 426.007 96.1752C426.684 96.1752 427.407 96.5366 428.175 97.2593C428.717 97.7562 428.988 98.2757 428.988 98.8177C428.988 99.405 428.559 100.128 427.701 100.986C423.861 104.735 419.773 106.61 415.437 106.61C414.262 106.61 412.817 106.384 411.1 105.932C408.209 105.209 405.996 103.606 404.46 101.121C402.924 98.637 402.156 95.7912 402.156 92.5841C402.156 91.5903 402.224 90.6417 402.359 89.7383C402.405 89.4221 402.495 88.7671 402.63 87.7733C402.811 86.7344 403.082 85.8761 403.444 85.1985C405.16 81.8107 408.209 79.936 412.591 79.5747ZM416.521 84.4532C415.708 84.1822 414.985 84.0466 414.352 84.0466C413.314 84.0466 412.5 84.3628 411.913 84.9953C411.326 85.6277 410.852 86.5763 410.49 87.8411C411.574 87.9766 412.726 87.7055 413.946 87.028C415.211 86.3052 416.069 85.447 416.521 84.4532ZM446.371 77.2709C446.506 77.7226 446.529 78.4228 446.439 79.3714L445.626 87.3668C445.852 87.1861 446.19 86.5537 446.642 85.4696C447.094 84.3403 447.523 83.4368 447.929 82.7593C448.336 82.0365 448.652 81.5622 448.878 81.3364C451.001 79.3036 453.395 78.084 456.06 77.6775C458.725 77.2709 461.662 77.0902 464.869 77.1354C465.185 77.1354 465.524 77.2709 465.885 77.542C466.292 77.7678 466.495 77.9711 466.495 78.1518C466.495 78.2873 466.359 78.5357 466.088 78.8971C465.817 79.2133 465.569 79.4166 465.343 79.5069C462.633 80.4103 460.239 81.4493 458.161 82.6237C456.128 83.7982 454.366 85.334 452.876 87.2312C449.352 91.7032 447.32 96.3107 446.778 101.054C446.642 102.319 446.258 103.177 445.626 103.628C444.993 104.035 444.112 104.238 442.983 104.238C441.718 104.238 440.589 103.696 439.595 102.612C438.601 101.528 438.105 100.331 438.105 99.021C438.15 94.2328 438.172 87.0506 438.172 77.4742C438.172 76.1642 438.466 75.2608 439.053 74.7639C439.64 74.2218 440.702 73.9508 442.238 73.9508C443.367 73.9508 444.316 74.267 445.084 74.8994C445.897 75.5318 446.326 76.3223 446.371 77.2709ZM486.871 92.5163C487.684 89.2188 488.181 86.6666 488.362 84.8597C488.588 83.0077 488.972 81.6977 489.514 80.9298C490.056 80.1619 490.959 79.7779 492.224 79.7779C494.121 79.7779 495.635 80.2071 496.764 81.0653C497.893 81.9236 498.458 83.098 498.458 84.5887C498.458 84.7694 498.413 85.1308 498.322 85.6728C497.645 89.3769 496.538 93.239 495.002 97.2593C492.563 103.854 489.943 110.449 487.142 117.044C486.284 118.987 484.997 120.861 483.28 122.668C482.874 123.12 482.49 123.346 482.128 123.346C481.586 123.346 481.18 122.759 480.909 121.584C480.638 120.365 480.502 119.19 480.502 118.061C480.502 116.751 480.638 115.441 480.909 114.131C481.18 112.866 481.564 111.33 482.061 109.523C482.512 107.807 482.828 106.519 483.009 105.661C483.19 104.758 483.28 104.125 483.28 103.764C483.28 102.364 482.603 101.212 481.247 100.308C478.899 98.7726 477.114 96.8302 475.895 94.4813C474.72 92.0872 473.772 89.2414 473.049 85.9439C473.004 85.8083 472.981 85.6051 472.981 85.334C472.981 84.5209 473.297 83.8208 473.93 83.2336C474.562 82.6463 475.285 82.3527 476.098 82.3527C476.595 82.3527 477.024 82.4431 477.385 82.6237C478.56 83.1206 479.486 83.753 480.163 84.5209C480.841 85.2437 481.338 86.2149 481.654 87.4345C481.925 88.5638 482.332 89.7383 482.874 90.9579C483.416 92.1775 483.732 92.9228 483.822 93.1939L484.771 95.4299H486.261L486.871 92.5163Z" fill="black"/>
</svg>
