<svg width="20" height="24" viewBox="0 0 20 24" fill="none" xmlns="http://www.w3.org/2000/svg">
<path fill-rule="evenodd" clip-rule="evenodd" d="M17.6665 6C17.6665 5.44772 17.2188 5 16.6665 5H3.33317C2.78089 5 2.33317 5.44772 2.33317 6C2.33317 6.55228 2.78089 7 3.33317 7H16.6665C17.2188 7 17.6665 6.55228 17.6665 6ZM17.6665 12C17.6665 11.4477 17.2188 11 16.6665 11H9.99984C9.44755 11 8.99984 11.4477 8.99984 12C8.99984 12.5523 9.44755 13 9.99984 13H16.6665C17.2188 13 17.6665 12.5523 17.6665 12ZM17.6665 18C17.6665 17.4477 17.2188 17 16.6665 17H3.33317C2.78089 17 2.33317 17.4477 2.33317 18C2.33317 18.5523 2.78089 19 3.33317 19H16.6665C17.2188 19 17.6665 18.5523 17.6665 18Z" fill="white"/>
</svg>
